PathFileType	4	(X/Y/Z)	c:/Users/goper/Files/vsCode/490R/osim_files/C12/C12_ROM.trc
DataRate	CameraRate	NumFrames	NumMarkers	Units                	OrigDataRate	OrigDataStartFrame	OrigNumFrames
120.00	120.00	6	36	mm	120.0	1	1911
                Frame#	Time	LPSIS			LASIS			LTH1			LTH2			LTH3			LTH4			LLFE			LMFE			LSH1			LSH2			LSH3			LSH4			LLMAL			LMMAL			LCAL			LMTP5			LTOE			LMTP1			RPSIS			RASIS			RTH1			RTH2			RTH3			RTH4			RLFE			RMFE			RSH1			RSH2			RSH3			RSH4			RLMAL			RMMAL			RCAL			RMTP1			RTOE			RMTP5		
		X1	Y1	Z1	X2	Y2	Z2	X3	Y3	Z3	X4	Y4	Z4	X5	Y5	Z5	X6	Y6	Z6	X7	Y7	Z7	X8	Y8	Z8	X9	Y9	Z9	X10	Y10	Z10	X11	Y11	Z11	X12	Y12	Z12	X13	Y13	Z13	X14	Y14	Z14	X15	Y15	Z15	X16	Y16	Z16	X17	Y17	Z17	X18	Y18	Z18	X19	Y19	Z19	X20	Y20	Z20	X21	Y21	Z21	X22	Y22	Z22	X23	Y23	Z23	X24	Y24	Z24	X25	Y25	Z25	X26	Y26	Z26	X27	Y27	Z27	X28	Y28	Z28	X29	Y29	Z29	X30	Y30	Z30	X31	Y31	Z31	X32	Y32	Z32	X33	Y33	Z33	X34	Y34	Z34	X35	Y35	Z35	X36	Y36	Z36

1	0.00000	-320.38174	1061.76868	428.24283	-147.40051	1022.00891	360.25131	-277.52585	758.43390	284.72498	-276.76514	714.14996	279.69553	-217.08440	756.69672	272.77286	-223.84262	712.56982	269.11664	-260.48648	531.36102	280.98480	-248.21227	500.80801	402.94168	-327.89297	446.99258	251.01123	-325.77209	402.33231	233.19533	-267.27094	445.42902	247.89207	-274.05328	400.31744	233.68114	-291.58911	103.49801	208.30981	-273.63263	101.13003	284.68793	-348.55377	71.19177	246.29649	-159.54233	40.21778	164.96426	-103.04649	71.69020	228.41385	-129.33568	42.68654	272.36224	-328.77386	1059.01465	543.29779	-142.64282	1017.26672	619.55878	-255.79143	761.22455	699.46454	-253.70419	715.04633	695.55841	-193.10315	755.79846	694.87573	-200.48878	708.96161	694.16339	-266.50220	534.07910	677.40710	-263.18692	515.81183	544.39105	-333.29504	439.26080	707.38019	-330.92578	398.13736	717.87421	-270.67377	436.32193	705.33832	-277.65781	395.70087	719.17065	-293.34396	101.93546	712.83960	-271.08862	109.74345	632.31750	-359.08914	62.28242	670.79517	-140.83704	47.32135	647.95551	-103.97005	68.05209	684.09387	-142.93495	41.92529	754.73419
2	0.00833	-320.20700	1061.83093	427.35794	-147.04771	1022.04065	359.73560	-276.92996	758.47711	283.89325	-276.16647	714.19110	278.88043	-216.30589	756.65576	272.26880	-223.02609	712.51068	268.60153	-260.46927	531.37512	280.51489	-248.49179	500.92487	402.68372	-327.96841	446.97842	250.59903	-325.81146	402.29245	232.76939	-267.32306	445.43597	247.52939	-274.11752	400.28012	233.32445	-291.60162	103.46017	208.26973	-273.63632	101.12351	284.65912	-348.50803	71.15815	246.26254	-159.52095	40.20376	164.96977	-103.04967	71.68343	228.41026	-129.34712	42.67497	272.37399	-328.89093	1058.92676	542.38757	-142.74092	1016.89612	619.03198	-256.03778	761.22760	698.82410	-254.01094	714.99359	694.87592	-193.49303	755.71191	694.38318	-200.68065	708.96826	693.68030	-266.60593	534.03729	676.91046	-263.00912	515.68225	543.83502	-333.48529	439.27274	706.74615	-331.08585	398.17569	717.34381	-270.88092	436.31610	704.84912	-277.77429	395.79327	718.74384	-293.33417	101.97985	712.79169	-271.04568	109.73135	632.27747	-359.05331	62.31198	670.77802	-140.78207	47.32787	647.98499	-103.95602	68.02778	684.12500	-142.89630	41.88708	754.74493
3	0.01667	-319.88419	1061.80920	426.49927	-146.68135	1021.98730	359.15991	-276.21356	758.52191	283.02975	-275.53247	714.19562	278.12531	-215.27971	756.77643	271.33661	-222.52762	712.41785	268.18640	-260.44812	531.37366	280.08038	-248.84332	501.00183	402.27750	-328.03937	446.94922	250.11240	-325.81387	402.26154	232.36540	-267.43808	445.39957	247.13658	-274.18933	400.16809	232.95335	-291.60892	103.40129	208.20992	-273.62360	101.15820	284.63913	-348.46463	71.20598	246.25999	-159.52600	40.18952	164.95627	-103.08218	71.64878	228.38879	-129.34671	42.65854	272.34366	-328.77356	1058.78772	541.51019	-142.78903	1016.55054	618.49878	-256.24951	761.25226	698.09747	-254.22731	714.99561	694.30994	-193.74483	755.71741	693.84814	-200.93152	708.96747	693.15063	-266.77408	534.07306	676.33807	-262.73035	515.55713	543.29156	-333.71155	439.29596	706.16156	-331.32135	398.27036	716.84979	-271.02271	436.38950	704.39362	-278.03506	395.86313	718.32458	-293.37665	102.02576	712.74799	-270.97614	109.73344	632.23389	-359.04205	62.32505	670.74628	-140.79283	47.28758	647.98102	-103.95915	67.98946	684.12555	-142.90544	41.87432	754.76794
4	0.02500	-319.87653	1061.83105	425.66882	-146.30396	1022.02246	358.51178	-275.65396	758.54272	282.26993	-275.06912	714.25159	277.37192	-214.38187	756.93964	270.91028	-221.98811	712.35400	267.74762	-260.42429	531.34692	279.64566	-249.02640	501.15683	401.91037	-328.11703	446.91821	249.59727	-325.87021	402.20599	231.97467	-267.54919	445.37064	246.69548	-274.22150	400.14029	232.56122	-291.61963	103.33057	208.16245	-273.61591	101.17669	284.58661	-348.46512	71.20892	246.23351	-159.53986	40.16603	164.91359	-103.04852	71.65820	228.36284	-129.34480	42.66695	272.33948	-328.98389	1058.66443	540.65875	-142.92474	1016.26099	617.86279	-256.57236	761.31366	697.37390	-254.52939	715.11768	693.51520	-193.89462	755.90833	693.23633	-201.25984	708.98883	692.60834	-267.01263	534.16089	675.79266	-262.54514	515.45520	542.87939	-334.04611	439.41345	705.45197	-331.71588	398.46347	716.20966	-271.32990	436.54257	703.84216	-278.35669	396.01120	717.86597	-293.36896	102.06920	712.68329	-270.93930	109.72385	632.19556	-359.01721	62.35646	670.72644	-140.82512	47.25784	647.99017	-103.95029	67.95655	684.15076	-142.89851	41.83651	754.77716
5	0.03333	-319.70837	1061.73242	424.79587	-145.92204	1022.03888	357.96503	-275.16556	758.60382	281.46918	-274.61530	714.29492	276.65665	-214.01579	756.64374	270.35458	-221.34445	712.35248	267.23737	-260.50345	531.37341	279.21072	-249.21516	501.31000	401.56052	-328.19305	446.91788	249.16124	-325.99298	402.16370	231.57513	-267.66113	445.34277	246.25218	-274.28348	400.11987	232.19789	-291.65079	103.27869	208.12254	-273.64890	101.16735	284.53918	-348.48303	71.17979	246.22565	-159.52092	40.15354	164.91496	-103.08567	71.64423	228.35442	-129.36609	42.66628	272.32944	-329.05487	1058.50879	539.76501	-142.88426	1016.11578	617.29449	-256.90112	761.35669	696.61285	-254.79912	715.12213	692.82623	-194.22462	755.90399	692.72620	-201.43639	709.05347	692.01257	-267.11432	534.20844	675.25653	-262.37683	515.33380	542.38892	-334.28296	439.47928	704.75336	-331.92776	398.55243	715.63507	-271.47827	436.65015	703.34222	-278.48108	396.14117	717.35718	-293.38480	102.10631	712.62335	-270.89224	109.71783	632.14368	-359.01953	62.38498	670.70776	-140.81284	47.25380	648.01056	-103.94646	67.92976	684.16803	-142.86819	41.82692	754.80353
6	0.04167	-319.41705	1061.74402	424.01736	-145.54358	1021.98608	357.38110	-274.66214	758.64612	280.71136	-274.16019	714.34039	275.98755	-213.51595	756.57214	269.83258	-220.85106	712.27234	266.77515	-260.59335	531.40784	278.76126	-249.54475	501.40878	401.21323	-328.35114	446.87686	248.71727	-326.07672	402.11133	231.11786	-267.78284	445.33453	245.85222	-274.44662	400.07114	231.82713	-291.67386	103.23753	208.06073	-273.67047	101.13084	284.48502	-348.55139	71.15923	246.15768	-159.52536	40.14318	164.89613	-103.07394	71.64816	228.34566	-129.36143	42.67798	272.32513	-328.90533	1058.49841	538.97430	-142.89229	1016.01794	616.75635	-257.14658	761.34637	695.88983	-255.11424	715.13898	692.18964	-194.47943	755.89203	692.22455	-201.77850	709.05341	691.50458	-267.32761	534.17883	674.70447	-262.17453	515.26074	541.83759	-334.46164	439.51520	704.20782	-332.09546	398.58179	715.18018	-271.69391	436.70480	702.92230	-278.74274	396.19550	716.91162	-293.38278	102.14159	712.55798	-270.83469	109.71581	632.11670	-359.00937	62.43016	670.67914	-140.75861	47.26854	648.04291	-103.89435	67.92190	684.19928	-142.87068	41.78899	754.82037
